<svg xmlns="http://www.w3.org/2000/svg" viewBox="0 0 304.92 378.62"><g id="Layer_2" data-name="Layer 2"><g id="Layer_1-2" data-name="Layer 1"><path d="M304.92,105.19s-63.19,78.39-152.46,79.61C63.19,183.58,0,105.19,0,105.19S63.19,26.79,152.46,25.6C241.73,26.79,304.92,105.19,304.92,105.19Z" style="fill:#beede1"/><circle cx="152.45" cy="105.2" r="73.49" style="fill:#32b8bb"/><circle cx="152.45" cy="105.2" r="35.02" style="fill:#061616"/><circle cx="238.57" cy="19.07" r="19.07" style="fill:#32b8bb"/><circle cx="66.33" cy="191.32" r="19.07" style="fill:#32b8bb"/><path d="M71.31,288.21H37.71V232.93h33.6V240h-26v17H68.89v7.18H45.35v16.91h26Z" style="fill:#d4f4eb"/><path d="M105,250.71,93.77,276.59l-11.7-25.88H73.65l16.13,33.37-3,6.39a5,5,0,0,0,4.55,7.19h0l21.55-47Z" style="fill:#d4f4eb"/><path d="M142.73,275.34l6.31,2.19a16.57,16.57,0,0,1-6.08,8.53,17.48,17.48,0,0,1-10.76,3.32A18.33,18.33,0,0,1,118.83,284q-5.51-5.41-5.5-14.62a19.86,19.86,0,0,1,5.3-14.19,16.81,16.81,0,0,1,12.63-5.61q8.51,0,13.26,5.34t4.75,14.3a15.11,15.11,0,0,1-.15,2.34H120.9a11.25,11.25,0,0,0,3.31,8.19,10.92,10.92,0,0,0,8,3.2Q140.23,282.91,142.73,275.34Zm-21.6-9.74h20.5a10,10,0,0,0-2.8-6.9q-2.66-2.68-7.49-2.69a9.66,9.66,0,0,0-7.17,2.84A10.19,10.19,0,0,0,121.13,265.6Z" style="fill:#d4f4eb"/><path d="M171.49,260.53a30.61,30.61,0,0,1,2.38-12.24,25.56,25.56,0,0,1,6.32-9.08,29.1,29.1,0,0,1,8.84-5.5,27.73,27.73,0,0,1,20.43,0,29,29,0,0,1,8.85,5.5,25.56,25.56,0,0,1,6.32,9.08A30.78,30.78,0,0,1,227,260.53a29.29,29.29,0,0,1-4.09,15.59,26.45,26.45,0,0,1-10.33,10,28.73,28.73,0,0,1-26.66,0,26.45,26.45,0,0,1-10.33-10A29.3,29.3,0,0,1,171.49,260.53Zm13.65-16q-5.85,5.73-5.85,16t5.85,16.06a20.14,20.14,0,0,0,28.22,0q5.85-5.76,5.85-16.06t-5.85-16a20.24,20.24,0,0,0-28.22,0Z" style="fill:#d4f4eb"/><path d="M242.13,266.53v21.68H234.8v-37.5H242v5.38q3.75-6.48,11.54-6.48,6.48,0,9.94,4.14a16,16,0,0,1,3.47,10.68v23.78h-7.33V265.68q0-9.44-8.73-9.44a7.71,7.71,0,0,0-6.43,2.93A11.48,11.48,0,0,0,242.13,266.53Z" style="fill:#d4f4eb"/><path d="M51.33,377.24H38.83a1.08,1.08,0,0,1-1.08-1.08V313.35a1.08,1.08,0,0,1,1.08-1.08h12.5a1.08,1.08,0,0,1,1.08,1.08v62.81A1.08,1.08,0,0,1,51.33,377.24Z" style="fill:#d4f4eb"/><path d="M96.4,378.62q-14.3,0-24-9.4t-9.72-24.33q0-14.83,9.81-24.42a32.74,32.74,0,0,1,23.73-9.57,36.28,36.28,0,0,1,12.6,2.06,25.25,25.25,0,0,1,9.12,5.45,33.61,33.61,0,0,1,5.59,7,25.21,25.21,0,0,1,2.7,6.42,1.12,1.12,0,0,1-.75,1.32l-11.6,3.66a1.1,1.1,0,0,1-1.37-.74,15.37,15.37,0,0,0-1.17-2.73,19,19,0,0,0-2.84-3.85,13.35,13.35,0,0,0-5-3.21A20.1,20.1,0,0,0,96.21,325a18.43,18.43,0,0,0-12.92,5.18q-5.58,5.18-5.59,14.7,0,8.81,5.5,14a18.46,18.46,0,0,0,13.2,5.23q7.51,0,11.64-3.76a18,18,0,0,0,5.09-7.43,1.08,1.08,0,0,1,1.32-.71l11.78,3.35a1.1,1.1,0,0,1,.77,1.35,29.91,29.91,0,0,1-2.7,6.37,34.16,34.16,0,0,1-5.59,7.24,26.06,26.06,0,0,1-9.35,5.82A35.68,35.68,0,0,1,96.4,378.62Z" style="fill:#d4f4eb"/><path d="M132.87,344.8q0-15.12,9.85-24.51a35.16,35.16,0,0,1,47.88,0q9.81,9.45,9.81,24.47t-9.81,24.42a35.19,35.19,0,0,1-47.88,0Q132.87,359.83,132.87,344.8Zm20.66-14.71q-5.62,5.09-5.63,14.62t5.63,14.57a19.62,19.62,0,0,0,26.26,0q5.58-5,5.59-14.57t-5.59-14.62a19.51,19.51,0,0,0-26.26,0Z" style="fill:#d4f4eb"/><path d="M266.12,377.24H252.51a1.07,1.07,0,0,1-.92-.51l-25.43-40.58a.55.55,0,0,0-1,.29v39.71a1.09,1.09,0,0,1-1.09,1.09H211.85a1.09,1.09,0,0,1-1.09-1.09V313.36a1.09,1.09,0,0,1,1.09-1.09h15.9a1.1,1.1,0,0,1,.93.52l23.07,37.38a.53.53,0,0,0,1-.27V313.36a1.09,1.09,0,0,1,1.09-1.09h12.3a1.09,1.09,0,0,1,1.09,1.09v62.79A1.09,1.09,0,0,1,266.12,377.24Z" style="fill:#d4f4eb"/></g></g></svg>