<svg xmlns="http://www.w3.org/2000/svg" viewBox="0 0 570.14 207.58"><g id="Layer_2" data-name="Layer 2"><g id="Layer_1-2" data-name="Layer 1"><path d="M300.84,103.78s-62.34,77.35-150.42,78.55C62.34,181.13,0,103.78,0,103.78S62.34,26.43,150.42,25.26C238.5,26.43,300.84,103.78,300.84,103.78Z" style="fill:#beede1"/><circle cx="150.41" cy="103.79" r="72.51" style="fill:#32b8bb"/><circle cx="150.41" cy="103.79" r="34.55" style="fill:#061616"/><circle cx="235.38" cy="18.82" r="18.82" style="fill:#32b8bb"/><circle cx="65.44" cy="188.76" r="18.82" style="fill:#32b8bb"/><path d="M376.86,87H343.71V32.45h33.15v7H351.25V56.22h23.23V63.3H351.25V80h25.61Z" style="fill:#d4f4eb"/><path d="M410.09,50,399,75.53,387.48,50h-8.31l15.92,32.92-3,6.31a5,5,0,0,0,4.5,7.09h0L417.86,50Z" style="fill:#d4f4eb"/><path d="M447.32,74.3l6.23,2.15a16.25,16.25,0,0,1-6,8.42,17.24,17.24,0,0,1-10.61,3.27,18.08,18.08,0,0,1-13.19-5.34q-5.43-5.35-5.43-14.43a19.59,19.59,0,0,1,5.24-14A16.55,16.55,0,0,1,436,48.84q8.37,0,13.07,5.27t4.7,14.11a14.72,14.72,0,0,1-.16,2.31H425.79a11.09,11.09,0,0,0,3.26,8.07,10.77,10.77,0,0,0,7.89,3.16Q444.86,81.76,447.32,74.3ZM426,64.68h20.23a9.85,9.85,0,0,0-2.77-6.8q-2.62-2.66-7.39-2.66A9.5,9.5,0,0,0,429,58,10,10,0,0,0,426,64.68Z" style="fill:#d4f4eb"/><path d="M475.71,59.68a30.32,30.32,0,0,1,2.34-12.07,25.31,25.31,0,0,1,6.23-9A28.69,28.69,0,0,1,493,33.22a27.42,27.42,0,0,1,20.16,0,28.69,28.69,0,0,1,8.73,5.43,25.31,25.31,0,0,1,6.23,9,30.32,30.32,0,0,1,2.35,12.07,29,29,0,0,1-4,15.39,26.17,26.17,0,0,1-10.2,9.84,28.38,28.38,0,0,1-26.3,0,26.08,26.08,0,0,1-10.19-9.84A28.87,28.87,0,0,1,475.71,59.68Zm13.46-15.8q-5.78,5.64-5.77,15.8t5.77,15.85a19.87,19.87,0,0,0,27.84,0q5.78-5.7,5.77-15.85T517,43.88a19.95,19.95,0,0,0-27.84,0Z" style="fill:#d4f4eb"/><path d="M545.4,65.61V87h-7.23V50h7.07V55.3q3.71-6.39,11.39-6.39c4.26,0,7.52,1.36,9.81,4.08a15.85,15.85,0,0,1,3.42,10.54V87h-7.23V64.76q0-9.3-8.62-9.31a7.58,7.58,0,0,0-6.34,2.89A11.34,11.34,0,0,0,545.4,65.61Z" style="fill:#d4f4eb"/><path d="M357.15,174.92H344.82a1.06,1.06,0,0,1-1.07-1.06v-62a1.07,1.07,0,0,1,1.07-1.06h12.33a1.07,1.07,0,0,1,1.07,1.06v62A1.06,1.06,0,0,1,357.15,174.92Z" style="fill:#d4f4eb"/><path d="M401.61,176.28q-14.1,0-23.68-9.27t-9.59-24q0-14.65,9.68-24.1a32.27,32.27,0,0,1,23.41-9.45,36,36,0,0,1,12.44,2,24.94,24.94,0,0,1,9,5.38,33.42,33.42,0,0,1,5.52,6.87,24.86,24.86,0,0,1,2.66,6.33,1.1,1.1,0,0,1-.74,1.3L418.85,135a1.08,1.08,0,0,1-1.35-.73,16,16,0,0,0-1.15-2.69,18.62,18.62,0,0,0-2.8-3.8,13.14,13.14,0,0,0-5-3.16,19.64,19.64,0,0,0-7.15-1.22,18.19,18.19,0,0,0-12.75,5.11q-5.51,5.1-5.51,14.51,0,8.67,5.43,13.83a18.19,18.19,0,0,0,13,5.15q7.42,0,11.49-3.7a17.94,17.94,0,0,0,5-7.34,1.06,1.06,0,0,1,1.29-.7l11.63,3.31a1.1,1.1,0,0,1,.76,1.33,29.64,29.64,0,0,1-2.66,6.29,34.18,34.18,0,0,1-5.52,7.14,25.75,25.75,0,0,1-9.22,5.74A35.23,35.23,0,0,1,401.61,176.28Z" style="fill:#d4f4eb"/><path d="M437.6,142.92q0-14.92,9.72-24.19a34.66,34.66,0,0,1,47.24,0q9.68,9.31,9.67,24.14T494.56,167a34.73,34.73,0,0,1-47.24,0Q437.6,157.74,437.6,142.92ZM458,128.4q-5.57,5-5.56,14.43T458,157.2a19.33,19.33,0,0,0,25.9,0q5.52-5,5.52-14.37t-5.52-14.43a19.24,19.24,0,0,0-25.9,0Z" style="fill:#d4f4eb"/><path d="M569.07,174.92H555.64a1.08,1.08,0,0,1-.91-.5l-25.09-40a.54.54,0,0,0-1,.29v39.18a1.07,1.07,0,0,1-1.07,1.07h-12a1.07,1.07,0,0,1-1.08-1.07V111.9a1.08,1.08,0,0,1,1.08-1.08h15.68a1.06,1.06,0,0,1,.91.51l22.77,36.89a.52.52,0,0,0,1-.28v-36a1.07,1.07,0,0,1,1.07-1.08h12.14a1.07,1.07,0,0,1,1.07,1.08v61.95A1.07,1.07,0,0,1,569.07,174.92Z" style="fill:#d4f4eb"/></g></g></svg>